<mxfile host="app.diagrams.net" modified="2022-05-31T07:49:00.772Z" agent="5.0 (Windows NT 10.0; Win64; x64) AppleWebKit/537.36 (KHTML, like Gecko) Chrome/102.0.5005.62 Safari/537.36" etag="M64tS5M_GSKrGr6prIID" version="18.1.3" type="github">
  <diagram id="8mQdDq2OMcNIMCmi7Q1_" name="Page-1">
    <mxGraphModel dx="2169" dy="582" grid="1" gridSize="10" guides="1" tooltips="1" connect="1" arrows="1" fold="1" page="1" pageScale="1" pageWidth="827" pageHeight="1169" background="#114B5F" math="0" shadow="0">
      <root>
        <mxCell id="0" />
        <mxCell id="1" parent="0" />
        <mxCell id="CX1uZ3t2IB86gQq5E-ZI-1" value="Avion" style="swimlane;childLayout=stackLayout;horizontal=1;startSize=30;horizontalStack=0;rounded=1;fontSize=14;fontStyle=0;strokeWidth=2;resizeParent=0;resizeLast=1;shadow=0;dashed=0;align=center;sketch=0;fontColor=#E4FDE1;fillColor=#F45B69;" vertex="1" parent="1">
          <mxGeometry x="120" y="600" width="160" height="60" as="geometry" />
        </mxCell>
        <mxCell id="CX1uZ3t2IB86gQq5E-ZI-2" value="+NumMatriculation&#xa;" style="align=left;strokeColor=none;fillColor=none;spacingLeft=4;fontSize=12;verticalAlign=top;resizable=0;rotatable=0;part=1;rounded=0;sketch=0;fontColor=#E4FDE1;" vertex="1" parent="CX1uZ3t2IB86gQq5E-ZI-1">
          <mxGeometry y="30" width="160" height="30" as="geometry" />
        </mxCell>
        <mxCell id="CX1uZ3t2IB86gQq5E-ZI-3" value="Propriétaire" style="swimlane;childLayout=stackLayout;horizontal=1;startSize=30;horizontalStack=0;rounded=1;fontSize=14;fontStyle=0;strokeWidth=2;resizeParent=0;resizeLast=1;shadow=0;dashed=0;align=center;sketch=0;fontColor=#E4FDE1;fillColor=#F45B69;" vertex="1" parent="1">
          <mxGeometry x="680" y="600" width="160" height="80" as="geometry" />
        </mxCell>
        <mxCell id="CX1uZ3t2IB86gQq5E-ZI-4" value="+Nom&#xa;adresse&#xa;NumTéléphone &#xa;" style="align=left;strokeColor=none;fillColor=none;spacingLeft=4;fontSize=12;verticalAlign=top;resizable=0;rotatable=0;part=1;rounded=0;sketch=0;fontColor=#E4FDE1;" vertex="1" parent="CX1uZ3t2IB86gQq5E-ZI-3">
          <mxGeometry y="30" width="160" height="50" as="geometry" />
        </mxCell>
        <mxCell id="CX1uZ3t2IB86gQq5E-ZI-7" style="edgeStyle=orthogonalEdgeStyle;curved=0;rounded=1;sketch=0;orthogonalLoop=1;jettySize=auto;html=1;exitX=1;exitY=0.5;exitDx=0;exitDy=0;entryX=0;entryY=0.25;entryDx=0;entryDy=0;fontColor=#E4FDE1;strokeColor=#028090;fillColor=#F45B69;" edge="1" parent="1" source="CX1uZ3t2IB86gQq5E-ZI-5" target="CX1uZ3t2IB86gQq5E-ZI-4">
          <mxGeometry relative="1" as="geometry">
            <Array as="points">
              <mxPoint x="520" y="643" />
              <mxPoint x="600" y="643" />
            </Array>
          </mxGeometry>
        </mxCell>
        <mxCell id="CX1uZ3t2IB86gQq5E-ZI-5" value="a" style="shape=rhombus;perimeter=rhombusPerimeter;whiteSpace=wrap;html=1;align=center;rounded=0;sketch=0;fontColor=#E4FDE1;strokeColor=#028090;fillColor=#F45B69;" vertex="1" parent="1">
          <mxGeometry x="400" y="600" width="120" height="60" as="geometry" />
        </mxCell>
        <mxCell id="CX1uZ3t2IB86gQq5E-ZI-6" style="edgeStyle=orthogonalEdgeStyle;curved=0;rounded=1;sketch=0;orthogonalLoop=1;jettySize=auto;html=1;exitX=1;exitY=0;exitDx=0;exitDy=0;entryX=0;entryY=0.5;entryDx=0;entryDy=0;fontColor=#E4FDE1;strokeColor=#028090;fillColor=#F45B69;" edge="1" parent="1" source="CX1uZ3t2IB86gQq5E-ZI-2" target="CX1uZ3t2IB86gQq5E-ZI-5">
          <mxGeometry relative="1" as="geometry">
            <Array as="points">
              <mxPoint x="330" y="630" />
              <mxPoint x="330" y="630" />
            </Array>
          </mxGeometry>
        </mxCell>
        <mxCell id="CX1uZ3t2IB86gQq5E-ZI-8" value="1-N" style="text;html=1;align=center;verticalAlign=middle;resizable=0;points=[];autosize=1;strokeColor=none;fillColor=none;fontColor=#E4FDE1;" vertex="1" parent="1">
          <mxGeometry x="285" y="640" width="30" height="20" as="geometry" />
        </mxCell>
        <mxCell id="CX1uZ3t2IB86gQq5E-ZI-9" value="1-1" style="text;html=1;align=center;verticalAlign=middle;resizable=0;points=[];autosize=1;strokeColor=none;fillColor=none;fontColor=#E4FDE1;" vertex="1" parent="1">
          <mxGeometry x="635" y="650" width="30" height="20" as="geometry" />
        </mxCell>
        <mxCell id="CX1uZ3t2IB86gQq5E-ZI-14" style="edgeStyle=orthogonalEdgeStyle;curved=0;rounded=1;sketch=0;orthogonalLoop=1;jettySize=auto;html=1;fontColor=#E4FDE1;strokeColor=#028090;fillColor=#F45B69;" edge="1" parent="1" source="CX1uZ3t2IB86gQq5E-ZI-10" target="CX1uZ3t2IB86gQq5E-ZI-12">
          <mxGeometry relative="1" as="geometry" />
        </mxCell>
        <mxCell id="CX1uZ3t2IB86gQq5E-ZI-10" value="Historique" style="swimlane;childLayout=stackLayout;horizontal=1;startSize=30;horizontalStack=0;rounded=1;fontSize=14;fontStyle=0;strokeWidth=2;resizeParent=0;resizeLast=1;shadow=0;dashed=0;align=center;sketch=0;fontColor=#E4FDE1;fillColor=#F45B69;" vertex="1" parent="1">
          <mxGeometry x="680" y="830" width="160" height="60" as="geometry" />
        </mxCell>
        <mxCell id="CX1uZ3t2IB86gQq5E-ZI-11" value="Transaction" style="align=left;strokeColor=none;fillColor=none;spacingLeft=4;fontSize=12;verticalAlign=top;resizable=0;rotatable=0;part=1;rounded=0;sketch=0;fontColor=#E4FDE1;" vertex="1" parent="CX1uZ3t2IB86gQq5E-ZI-10">
          <mxGeometry y="30" width="160" height="30" as="geometry" />
        </mxCell>
        <mxCell id="CX1uZ3t2IB86gQq5E-ZI-12" value="a" style="shape=rhombus;perimeter=rhombusPerimeter;whiteSpace=wrap;html=1;align=center;rounded=0;sketch=0;fontColor=#E4FDE1;strokeColor=#028090;fillColor=#F45B69;" vertex="1" parent="1">
          <mxGeometry x="680" y="730" width="120" height="60" as="geometry" />
        </mxCell>
        <mxCell id="CX1uZ3t2IB86gQq5E-ZI-13" style="edgeStyle=orthogonalEdgeStyle;curved=0;rounded=1;sketch=0;orthogonalLoop=1;jettySize=auto;html=1;entryX=0.5;entryY=0;entryDx=0;entryDy=0;fontColor=#E4FDE1;strokeColor=#028090;fillColor=#F45B69;" edge="1" parent="1" source="CX1uZ3t2IB86gQq5E-ZI-4" target="CX1uZ3t2IB86gQq5E-ZI-12">
          <mxGeometry relative="1" as="geometry" />
        </mxCell>
        <mxCell id="CX1uZ3t2IB86gQq5E-ZI-15" value="0-N" style="text;html=1;align=center;verticalAlign=middle;resizable=0;points=[];autosize=1;strokeColor=none;fillColor=none;fontColor=#E4FDE1;" vertex="1" parent="1">
          <mxGeometry x="755" y="680" width="30" height="20" as="geometry" />
        </mxCell>
        <mxCell id="CX1uZ3t2IB86gQq5E-ZI-16" value="1-N" style="text;html=1;align=center;verticalAlign=middle;resizable=0;points=[];autosize=1;strokeColor=none;fillColor=none;fontColor=#E4FDE1;" vertex="1" parent="1">
          <mxGeometry x="765" y="810" width="30" height="20" as="geometry" />
        </mxCell>
        <mxCell id="CX1uZ3t2IB86gQq5E-ZI-17" value="Type d&#39;avion" style="swimlane;childLayout=stackLayout;horizontal=1;startSize=30;horizontalStack=0;rounded=1;fontSize=14;fontStyle=0;strokeWidth=2;resizeParent=0;resizeLast=1;shadow=0;dashed=0;align=center;sketch=0;fontColor=#E4FDE1;fillColor=#F45B69;" vertex="1" parent="1">
          <mxGeometry x="120" y="840" width="160" height="120" as="geometry" />
        </mxCell>
        <mxCell id="CX1uZ3t2IB86gQq5E-ZI-18" value="+Nom&#xa;Nom du constructeur&#xa;puissance moteur&#xa;nombre de place" style="align=left;strokeColor=none;fillColor=none;spacingLeft=4;fontSize=12;verticalAlign=top;resizable=0;rotatable=0;part=1;rounded=0;sketch=0;fontColor=#E4FDE1;" vertex="1" parent="CX1uZ3t2IB86gQq5E-ZI-17">
          <mxGeometry y="30" width="160" height="90" as="geometry" />
        </mxCell>
        <mxCell id="CX1uZ3t2IB86gQq5E-ZI-20" style="edgeStyle=orthogonalEdgeStyle;curved=0;rounded=1;sketch=0;orthogonalLoop=1;jettySize=auto;html=1;entryX=0.5;entryY=1;entryDx=0;entryDy=0;fontColor=#E4FDE1;strokeColor=#028090;fillColor=#F45B69;" edge="1" parent="1" source="CX1uZ3t2IB86gQq5E-ZI-19" target="CX1uZ3t2IB86gQq5E-ZI-2">
          <mxGeometry relative="1" as="geometry" />
        </mxCell>
        <mxCell id="CX1uZ3t2IB86gQq5E-ZI-21" style="edgeStyle=orthogonalEdgeStyle;curved=0;rounded=1;sketch=0;orthogonalLoop=1;jettySize=auto;html=1;entryX=0.5;entryY=0;entryDx=0;entryDy=0;fontColor=#E4FDE1;strokeColor=#028090;fillColor=#F45B69;" edge="1" parent="1" source="CX1uZ3t2IB86gQq5E-ZI-19" target="CX1uZ3t2IB86gQq5E-ZI-17">
          <mxGeometry relative="1" as="geometry" />
        </mxCell>
        <mxCell id="CX1uZ3t2IB86gQq5E-ZI-19" value="carac" style="shape=rhombus;perimeter=rhombusPerimeter;whiteSpace=wrap;html=1;align=center;rounded=0;sketch=0;fontColor=#E4FDE1;strokeColor=#028090;fillColor=#F45B69;" vertex="1" parent="1">
          <mxGeometry x="120" y="720" width="120" height="60" as="geometry" />
        </mxCell>
        <mxCell id="CX1uZ3t2IB86gQq5E-ZI-22" value="1-1" style="text;html=1;align=center;verticalAlign=middle;resizable=0;points=[];autosize=1;strokeColor=none;fillColor=none;fontColor=#E4FDE1;" vertex="1" parent="1">
          <mxGeometry x="205" y="820" width="30" height="20" as="geometry" />
        </mxCell>
        <mxCell id="CX1uZ3t2IB86gQq5E-ZI-23" value="1-1" style="text;html=1;align=center;verticalAlign=middle;resizable=0;points=[];autosize=1;strokeColor=none;fillColor=none;fontColor=#E4FDE1;" vertex="1" parent="1">
          <mxGeometry x="205" y="660" width="30" height="20" as="geometry" />
        </mxCell>
        <mxCell id="CX1uZ3t2IB86gQq5E-ZI-24" value="Mecano " style="swimlane;childLayout=stackLayout;horizontal=1;startSize=30;horizontalStack=0;rounded=1;fontSize=14;fontStyle=0;strokeWidth=2;resizeParent=0;resizeLast=1;shadow=0;dashed=0;align=center;sketch=0;fontColor=#E4FDE1;fillColor=#F45B69;" vertex="1" parent="1">
          <mxGeometry x="-360" y="560" width="160" height="120" as="geometry" />
        </mxCell>
        <mxCell id="CX1uZ3t2IB86gQq5E-ZI-25" value="+Nom&#xa;drasse&#xa;numTel&#xa;" style="align=left;strokeColor=none;fillColor=none;spacingLeft=4;fontSize=12;verticalAlign=top;resizable=0;rotatable=0;part=1;rounded=0;sketch=0;fontColor=#E4FDE1;" vertex="1" parent="CX1uZ3t2IB86gQq5E-ZI-24">
          <mxGeometry y="30" width="160" height="90" as="geometry" />
        </mxCell>
        <mxCell id="CX1uZ3t2IB86gQq5E-ZI-26" value="intervention" style="swimlane;childLayout=stackLayout;horizontal=1;startSize=30;horizontalStack=0;rounded=1;fontSize=14;fontStyle=0;strokeWidth=2;resizeParent=0;resizeLast=1;shadow=0;dashed=0;align=center;sketch=0;fontColor=#E4FDE1;fillColor=#F45B69;" vertex="1" parent="1">
          <mxGeometry x="-150" y="310" width="160" height="120" as="geometry" />
        </mxCell>
        <mxCell id="CX1uZ3t2IB86gQq5E-ZI-27" value="+Numero&#xa;objet&#xa;date&#xa;durée&#xa;" style="align=left;strokeColor=none;fillColor=none;spacingLeft=4;fontSize=12;verticalAlign=top;resizable=0;rotatable=0;part=1;rounded=0;sketch=0;fontColor=#E4FDE1;" vertex="1" parent="CX1uZ3t2IB86gQq5E-ZI-26">
          <mxGeometry y="30" width="160" height="90" as="geometry" />
        </mxCell>
        <mxCell id="CX1uZ3t2IB86gQq5E-ZI-31" style="edgeStyle=orthogonalEdgeStyle;curved=0;rounded=1;sketch=0;orthogonalLoop=1;jettySize=auto;html=1;entryX=0;entryY=0;entryDx=0;entryDy=0;fontColor=#E4FDE1;strokeColor=#028090;fillColor=#F45B69;" edge="1" parent="1" source="CX1uZ3t2IB86gQq5E-ZI-28" target="CX1uZ3t2IB86gQq5E-ZI-2">
          <mxGeometry relative="1" as="geometry" />
        </mxCell>
        <mxCell id="CX1uZ3t2IB86gQq5E-ZI-28" value="Intervention" style="shape=rhombus;perimeter=rhombusPerimeter;whiteSpace=wrap;html=1;align=center;rounded=0;sketch=0;fontColor=#E4FDE1;strokeColor=#028090;fillColor=#F45B69;" vertex="1" parent="1">
          <mxGeometry x="-120" y="600" width="120" height="60" as="geometry" />
        </mxCell>
        <mxCell id="CX1uZ3t2IB86gQq5E-ZI-41" style="edgeStyle=orthogonalEdgeStyle;curved=0;rounded=1;sketch=0;orthogonalLoop=1;jettySize=auto;html=1;entryX=0;entryY=0.378;entryDx=0;entryDy=0;entryPerimeter=0;fontColor=#E4FDE1;strokeColor=#028090;fillColor=#F45B69;" edge="1" parent="1" source="CX1uZ3t2IB86gQq5E-ZI-29" target="CX1uZ3t2IB86gQq5E-ZI-27">
          <mxGeometry relative="1" as="geometry" />
        </mxCell>
        <mxCell id="CX1uZ3t2IB86gQq5E-ZI-42" style="edgeStyle=orthogonalEdgeStyle;curved=0;rounded=1;sketch=0;orthogonalLoop=1;jettySize=auto;html=1;entryX=0.369;entryY=0;entryDx=0;entryDy=0;entryPerimeter=0;fontColor=#E4FDE1;strokeColor=#028090;fillColor=#F45B69;" edge="1" parent="1" source="CX1uZ3t2IB86gQq5E-ZI-29" target="CX1uZ3t2IB86gQq5E-ZI-24">
          <mxGeometry relative="1" as="geometry" />
        </mxCell>
        <mxCell id="CX1uZ3t2IB86gQq5E-ZI-29" value="verifie" style="shape=rhombus;perimeter=rhombusPerimeter;whiteSpace=wrap;html=1;align=center;rounded=0;sketch=0;fontColor=#E4FDE1;strokeColor=#028090;fillColor=#F45B69;" vertex="1" parent="1">
          <mxGeometry x="-360" y="360" width="120" height="60" as="geometry" />
        </mxCell>
        <mxCell id="CX1uZ3t2IB86gQq5E-ZI-30" style="edgeStyle=orthogonalEdgeStyle;curved=0;rounded=1;sketch=0;orthogonalLoop=1;jettySize=auto;html=1;entryX=0;entryY=0.5;entryDx=0;entryDy=0;fontColor=#E4FDE1;strokeColor=#028090;fillColor=#F45B69;" edge="1" parent="1" source="CX1uZ3t2IB86gQq5E-ZI-25" target="CX1uZ3t2IB86gQq5E-ZI-28">
          <mxGeometry relative="1" as="geometry" />
        </mxCell>
        <mxCell id="CX1uZ3t2IB86gQq5E-ZI-34" value="0-N" style="text;html=1;align=center;verticalAlign=middle;resizable=0;points=[];autosize=1;strokeColor=none;fillColor=none;fontColor=#E4FDE1;" vertex="1" parent="1">
          <mxGeometry x="-195" y="610" width="30" height="20" as="geometry" />
        </mxCell>
        <mxCell id="CX1uZ3t2IB86gQq5E-ZI-35" value="2-2" style="text;html=1;align=center;verticalAlign=middle;resizable=0;points=[];autosize=1;strokeColor=none;fillColor=none;fontColor=#E4FDE1;" vertex="1" parent="1">
          <mxGeometry x="75" y="620" width="30" height="20" as="geometry" />
        </mxCell>
        <mxCell id="CX1uZ3t2IB86gQq5E-ZI-43" value="1-N" style="text;html=1;align=center;verticalAlign=middle;resizable=0;points=[];autosize=1;strokeColor=none;fillColor=none;fontColor=#E4FDE1;" vertex="1" parent="1">
          <mxGeometry x="-285" y="530" width="30" height="20" as="geometry" />
        </mxCell>
        <mxCell id="CX1uZ3t2IB86gQq5E-ZI-44" value="2-2" style="text;html=1;align=center;verticalAlign=middle;resizable=0;points=[];autosize=1;strokeColor=none;fillColor=none;fontColor=#E4FDE1;" vertex="1" parent="1">
          <mxGeometry x="-185" y="370" width="30" height="20" as="geometry" />
        </mxCell>
        <mxCell id="CX1uZ3t2IB86gQq5E-ZI-49" style="edgeStyle=orthogonalEdgeStyle;curved=0;rounded=1;sketch=0;orthogonalLoop=1;jettySize=auto;html=1;entryX=0.5;entryY=1;entryDx=0;entryDy=0;fontColor=#E4FDE1;strokeColor=#028090;fillColor=#F45B69;" edge="1" parent="1" source="CX1uZ3t2IB86gQq5E-ZI-45" target="CX1uZ3t2IB86gQq5E-ZI-47">
          <mxGeometry relative="1" as="geometry" />
        </mxCell>
        <mxCell id="CX1uZ3t2IB86gQq5E-ZI-45" value="Historique intervention" style="swimlane;childLayout=stackLayout;horizontal=1;startSize=30;horizontalStack=0;rounded=1;fontSize=14;fontStyle=0;strokeWidth=2;resizeParent=0;resizeLast=1;shadow=0;dashed=0;align=center;sketch=0;fontColor=#E4FDE1;fillColor=#F45B69;" vertex="1" parent="1">
          <mxGeometry x="-360" y="850" width="160" height="120" as="geometry" />
        </mxCell>
        <mxCell id="CX1uZ3t2IB86gQq5E-ZI-46" value="Type d&#39;avion" style="align=left;strokeColor=none;fillColor=none;spacingLeft=4;fontSize=12;verticalAlign=top;resizable=0;rotatable=0;part=1;rounded=0;sketch=0;fontColor=#E4FDE1;" vertex="1" parent="CX1uZ3t2IB86gQq5E-ZI-45">
          <mxGeometry y="30" width="160" height="90" as="geometry" />
        </mxCell>
        <mxCell id="CX1uZ3t2IB86gQq5E-ZI-47" value="Relationship" style="shape=rhombus;perimeter=rhombusPerimeter;whiteSpace=wrap;html=1;align=center;rounded=0;sketch=0;fontColor=#E4FDE1;strokeColor=#028090;fillColor=#F45B69;" vertex="1" parent="1">
          <mxGeometry x="-340" y="730" width="120" height="60" as="geometry" />
        </mxCell>
        <mxCell id="CX1uZ3t2IB86gQq5E-ZI-48" style="edgeStyle=orthogonalEdgeStyle;curved=0;rounded=1;sketch=0;orthogonalLoop=1;jettySize=auto;html=1;entryX=0.5;entryY=0;entryDx=0;entryDy=0;fontColor=#E4FDE1;strokeColor=#028090;fillColor=#F45B69;" edge="1" parent="1" source="CX1uZ3t2IB86gQq5E-ZI-25" target="CX1uZ3t2IB86gQq5E-ZI-47">
          <mxGeometry relative="1" as="geometry" />
        </mxCell>
        <mxCell id="CX1uZ3t2IB86gQq5E-ZI-50" value="0-N" style="text;html=1;align=center;verticalAlign=middle;resizable=0;points=[];autosize=1;strokeColor=none;fillColor=none;fontColor=#E4FDE1;" vertex="1" parent="1">
          <mxGeometry x="-285" y="680" width="30" height="20" as="geometry" />
        </mxCell>
        <mxCell id="CX1uZ3t2IB86gQq5E-ZI-51" value="1-1" style="text;html=1;align=center;verticalAlign=middle;resizable=0;points=[];autosize=1;strokeColor=none;fillColor=none;fontColor=#E4FDE1;" vertex="1" parent="1">
          <mxGeometry x="-285" y="830" width="30" height="20" as="geometry" />
        </mxCell>
        <mxCell id="CX1uZ3t2IB86gQq5E-ZI-52" value="Aéroport" style="swimlane;childLayout=stackLayout;horizontal=1;startSize=30;horizontalStack=0;rounded=1;fontSize=14;fontStyle=0;strokeWidth=2;resizeParent=0;resizeLast=1;shadow=0;dashed=0;align=center;sketch=0;fontColor=#E4FDE1;fillColor=#F45B69;" vertex="1" parent="1">
          <mxGeometry x="560" y="1200" width="160" height="60" as="geometry" />
        </mxCell>
        <mxCell id="CX1uZ3t2IB86gQq5E-ZI-53" value="+nom" style="align=left;strokeColor=none;fillColor=none;spacingLeft=4;fontSize=12;verticalAlign=top;resizable=0;rotatable=0;part=1;rounded=0;sketch=0;fontColor=#E4FDE1;" vertex="1" parent="CX1uZ3t2IB86gQq5E-ZI-52">
          <mxGeometry y="30" width="160" height="30" as="geometry" />
        </mxCell>
        <mxCell id="CX1uZ3t2IB86gQq5E-ZI-59" style="edgeStyle=orthogonalEdgeStyle;curved=0;rounded=1;sketch=0;orthogonalLoop=1;jettySize=auto;html=1;entryX=0.5;entryY=1;entryDx=0;entryDy=0;fontColor=#E4FDE1;strokeColor=#028090;fillColor=#F45B69;" edge="1" parent="1" source="CX1uZ3t2IB86gQq5E-ZI-54" target="CX1uZ3t2IB86gQq5E-ZI-57">
          <mxGeometry relative="1" as="geometry" />
        </mxCell>
        <mxCell id="CX1uZ3t2IB86gQq5E-ZI-54" value="Pilote" style="swimlane;childLayout=stackLayout;horizontal=1;startSize=30;horizontalStack=0;rounded=1;fontSize=14;fontStyle=0;strokeWidth=2;resizeParent=0;resizeLast=1;shadow=0;dashed=0;align=center;sketch=0;fontColor=#E4FDE1;fillColor=#F45B69;" vertex="1" parent="1">
          <mxGeometry x="125" y="1160" width="160" height="120" as="geometry" />
        </mxCell>
        <mxCell id="CX1uZ3t2IB86gQq5E-ZI-55" value="+nom&#xa;Adresse&#xa;NumTel&#xa;NumBrevet" style="align=left;strokeColor=none;fillColor=none;spacingLeft=4;fontSize=12;verticalAlign=top;resizable=0;rotatable=0;part=1;rounded=0;sketch=0;fontColor=#E4FDE1;" vertex="1" parent="CX1uZ3t2IB86gQq5E-ZI-54">
          <mxGeometry y="30" width="160" height="90" as="geometry" />
        </mxCell>
        <mxCell id="CX1uZ3t2IB86gQq5E-ZI-60" style="edgeStyle=orthogonalEdgeStyle;curved=0;rounded=1;sketch=0;orthogonalLoop=1;jettySize=auto;html=1;entryX=0.438;entryY=1.111;entryDx=0;entryDy=0;entryPerimeter=0;fontColor=#E4FDE1;strokeColor=#028090;fillColor=#F45B69;" edge="1" parent="1" source="CX1uZ3t2IB86gQq5E-ZI-57" target="CX1uZ3t2IB86gQq5E-ZI-18">
          <mxGeometry relative="1" as="geometry" />
        </mxCell>
        <mxCell id="CX1uZ3t2IB86gQq5E-ZI-57" value="peut piloter" style="shape=rhombus;perimeter=rhombusPerimeter;whiteSpace=wrap;html=1;align=center;rounded=0;sketch=0;fontColor=#E4FDE1;strokeColor=#028090;fillColor=#F45B69;" vertex="1" parent="1">
          <mxGeometry x="130" y="1020" width="120" height="60" as="geometry" />
        </mxCell>
        <mxCell id="CX1uZ3t2IB86gQq5E-ZI-62" style="edgeStyle=orthogonalEdgeStyle;curved=0;rounded=1;sketch=0;orthogonalLoop=1;jettySize=auto;html=1;entryX=0;entryY=0;entryDx=0;entryDy=0;fontColor=#E4FDE1;strokeColor=#028090;fillColor=#F45B69;" edge="1" parent="1" source="CX1uZ3t2IB86gQq5E-ZI-61" target="CX1uZ3t2IB86gQq5E-ZI-53">
          <mxGeometry relative="1" as="geometry" />
        </mxCell>
        <mxCell id="CX1uZ3t2IB86gQq5E-ZI-63" style="edgeStyle=orthogonalEdgeStyle;curved=0;rounded=1;sketch=0;orthogonalLoop=1;jettySize=auto;html=1;entryX=1;entryY=0.5;entryDx=0;entryDy=0;fontColor=#E4FDE1;strokeColor=#028090;fillColor=#F45B69;" edge="1" parent="1" source="CX1uZ3t2IB86gQq5E-ZI-61" target="CX1uZ3t2IB86gQq5E-ZI-55">
          <mxGeometry relative="1" as="geometry" />
        </mxCell>
        <mxCell id="CX1uZ3t2IB86gQq5E-ZI-61" value="Pocede" style="shape=rhombus;perimeter=rhombusPerimeter;whiteSpace=wrap;html=1;align=center;rounded=0;sketch=0;fontColor=#E4FDE1;strokeColor=#028090;fillColor=#F45B69;" vertex="1" parent="1">
          <mxGeometry x="354" y="1200" width="120" height="60" as="geometry" />
        </mxCell>
        <mxCell id="CX1uZ3t2IB86gQq5E-ZI-64" value="Historique vol" style="swimlane;childLayout=stackLayout;horizontal=1;startSize=30;horizontalStack=0;rounded=1;fontSize=14;fontStyle=0;strokeWidth=2;resizeParent=0;resizeLast=1;shadow=0;dashed=0;align=center;sketch=0;fontColor=#E4FDE1;fillColor=#F45B69;" vertex="1" parent="1">
          <mxGeometry x="-360" y="1169" width="160" height="120" as="geometry" />
        </mxCell>
        <mxCell id="CX1uZ3t2IB86gQq5E-ZI-65" value="Nombre totale de vol" style="align=left;strokeColor=none;fillColor=none;spacingLeft=4;fontSize=12;verticalAlign=top;resizable=0;rotatable=0;part=1;rounded=0;sketch=0;fontColor=#E4FDE1;" vertex="1" parent="CX1uZ3t2IB86gQq5E-ZI-64">
          <mxGeometry y="30" width="160" height="90" as="geometry" />
        </mxCell>
        <mxCell id="CX1uZ3t2IB86gQq5E-ZI-67" style="edgeStyle=orthogonalEdgeStyle;curved=0;rounded=1;sketch=0;orthogonalLoop=1;jettySize=auto;html=1;entryX=1.019;entryY=0.356;entryDx=0;entryDy=0;entryPerimeter=0;fontColor=#E4FDE1;strokeColor=#028090;fillColor=#F45B69;" edge="1" parent="1" source="CX1uZ3t2IB86gQq5E-ZI-66" target="CX1uZ3t2IB86gQq5E-ZI-65">
          <mxGeometry relative="1" as="geometry" />
        </mxCell>
        <mxCell id="CX1uZ3t2IB86gQq5E-ZI-68" style="edgeStyle=orthogonalEdgeStyle;curved=0;rounded=1;sketch=0;orthogonalLoop=1;jettySize=auto;html=1;entryX=0;entryY=0.5;entryDx=0;entryDy=0;fontColor=#E4FDE1;strokeColor=#028090;fillColor=#F45B69;" edge="1" parent="1" source="CX1uZ3t2IB86gQq5E-ZI-66" target="CX1uZ3t2IB86gQq5E-ZI-55">
          <mxGeometry relative="1" as="geometry" />
        </mxCell>
        <mxCell id="CX1uZ3t2IB86gQq5E-ZI-66" value="Historique" style="shape=rhombus;perimeter=rhombusPerimeter;whiteSpace=wrap;html=1;align=center;rounded=0;sketch=0;fontColor=#E4FDE1;strokeColor=#028090;fillColor=#F45B69;" vertex="1" parent="1">
          <mxGeometry x="-110" y="1200" width="120" height="60" as="geometry" />
        </mxCell>
        <mxCell id="CX1uZ3t2IB86gQq5E-ZI-69" value="0-n" style="text;html=1;align=center;verticalAlign=middle;resizable=0;points=[];autosize=1;strokeColor=none;fillColor=none;fontColor=#E4FDE1;" vertex="1" parent="1">
          <mxGeometry x="85" y="1190" width="30" height="20" as="geometry" />
        </mxCell>
        <mxCell id="CX1uZ3t2IB86gQq5E-ZI-70" value="1-1" style="text;html=1;align=center;verticalAlign=middle;resizable=0;points=[];autosize=1;strokeColor=none;fillColor=none;fontColor=#E4FDE1;" vertex="1" parent="1">
          <mxGeometry x="-205" y="1200" width="30" height="20" as="geometry" />
        </mxCell>
        <mxCell id="CX1uZ3t2IB86gQq5E-ZI-71" value="1-1" style="text;html=1;align=center;verticalAlign=middle;resizable=0;points=[];autosize=1;strokeColor=none;fillColor=none;fontColor=#E4FDE1;" vertex="1" parent="1">
          <mxGeometry x="285" y="1200" width="30" height="20" as="geometry" />
        </mxCell>
        <mxCell id="CX1uZ3t2IB86gQq5E-ZI-72" value="0-N" style="text;html=1;align=center;verticalAlign=middle;resizable=0;points=[];autosize=1;strokeColor=none;fillColor=none;fontColor=#E4FDE1;" vertex="1" parent="1">
          <mxGeometry x="515" y="1230" width="30" height="20" as="geometry" />
        </mxCell>
        <mxCell id="CX1uZ3t2IB86gQq5E-ZI-73" value="0-N" style="text;html=1;align=center;verticalAlign=middle;resizable=0;points=[];autosize=1;strokeColor=none;fillColor=none;fontColor=#E4FDE1;" vertex="1" parent="1">
          <mxGeometry x="205" y="1130" width="30" height="20" as="geometry" />
        </mxCell>
        <mxCell id="CX1uZ3t2IB86gQq5E-ZI-74" value="0-N" style="text;html=1;align=center;verticalAlign=middle;resizable=0;points=[];autosize=1;strokeColor=none;fillColor=none;fontColor=#E4FDE1;" vertex="1" parent="1">
          <mxGeometry x="195" y="960" width="30" height="20" as="geometry" />
        </mxCell>
      </root>
    </mxGraphModel>
  </diagram>
</mxfile>
